<svg xmlns="http://www.w3.org/2000/svg" width="45" height="46" viewBox="0 0 45 46">
  <path fill="#E62840" fill-rule="evenodd" d="M708.568835,136.01415 C705.327192,139.255713 702.08555,142.497387 698.843907,145.73906 C698.810804,145.768424 698.779351,145.799878 698.744489,145.827152 C698.674655,145.88181 698.598441,145.92789 698.517609,145.964293 C698.232772,146.092526 697.899766,146.092526 697.614929,145.964293 C697.533987,145.92789 697.457774,145.88181 697.388049,145.827152 C697.353187,145.799878 697.321734,145.768424 697.288631,145.73906 L687.563813,136.01415 L678,141.004673 L678,155.550963 L696.496697,174.047945 C696.276525,174.235896 696.048436,174.414168 695.809569,174.578253 C695.303021,174.925999 694.742805,175.200941 694.13046,175.292662 C693.528563,175.382733 692.918528,175.30289 692.32444,175.195552 C692.105698,175.154201 691.888056,175.108451 691.670415,175.061491 C690.857145,174.879369 690.047724,174.680531 689.231044,174.513807 C688.409526,174.346092 687.582069,174.207962 686.749334,174.108213 C685.428306,173.950176 684.097381,173.887049 682.767335,173.902116 L683.477668,173.488824 L688.126889,168.788639 L686.22233,166.884063 L681.539567,171.757131 L680.21568,173.735062 L678.492911,176.389899 C678.625102,176.378902 678.645667,176.376592 678.726279,176.377362 C680.704411,176.153999 682.603801,176.043143 684.503191,176.129475 C685.287317,176.165107 686.069794,176.233842 686.847872,176.33788 C687.39764,176.411345 687.944329,176.503945 688.489039,176.608533 C688.782784,176.667261 689.075759,176.728298 689.368514,176.791644 C689.896507,176.909429 690.422741,177.034693 690.950294,177.154238 C692.09734,177.414003 693.278479,177.644514 694.456318,177.468001 C694.793283,177.417522 695.1253,177.335479 695.447089,177.223743 C695.972333,177.041401 696.467663,176.781417 696.93066,176.475021 C697.326793,176.213057 697.698511,175.918649 698.054392,175.605765 L698.285671,175.398129 C698.431388,175.264618 698.574687,175.128467 698.716225,174.990556 C698.851935,174.855394 698.986326,174.719243 699.119506,174.581662 C699.164926,174.530743 699.182962,174.513037 699.215185,174.468606 L718.132648,155.550963 L718.132648,141.864801 L705.139904,154.857669 C705.220956,155.116775 705.287271,155.380609 705.33841,155.647412 C705.488856,156.431656 705.508432,157.240425 705.398017,158.031157 C705.294969,158.769871 705.075678,159.491538 704.75213,160.163386 C704.385691,160.924205 703.884861,161.619257 703.280655,162.208953 C702.633888,162.840329 701.869997,163.349851 701.037482,163.702326 C700.175272,164.067339 699.243669,164.260898 698.307556,164.272776 C697.368144,164.284653 696.428732,164.114299 695.554645,163.769412 C694.712671,163.437172 693.935693,162.945577 693.2732,162.329047 C692.634241,161.734403 692.103719,161.024613 691.715065,160.243119 C691.383378,159.57633 691.156168,158.858402 691.043443,158.122218 C690.927199,157.362609 690.932038,156.584194 691.05774,155.826124 C691.174644,155.121284 691.396795,154.434479 691.715065,153.794854 C692.416599,152.384403 693.579592,151.22074 694.99047,150.519748 C695.603034,150.215332 696.258159,149.998568 696.93154,149.878144 C697.263227,149.818756 697.597993,149.784994 697.934518,149.770037 C698.058901,149.766078 698.183063,149.764538 698.307556,149.765308 C698.615378,149.771137 698.92199,149.792362 699.226952,149.835143 C699.528176,149.877374 699.82665,149.938741 700.119955,150.018584 L712.219367,137.919057 L708.568835,136.01415 Z M717.619465,135.345125 C717.719653,135.514709 717.829739,135.678464 717.948622,135.835731 C718.348054,136.364169 718.854492,136.828051 719.427905,137.174478 L697.160693,159.441902 L695.148248,161.454366 C695.14011,161.463384 695.132742,161.471412 695.125813,161.478891 C694.342567,160.995983 693.772563,160.311048 693.387428,159.577393 L717.619465,135.345125 Z M720.456711,132.000229 C720.333868,132.005288 720.212235,132.022444 720.09577,132.063466 C720.024616,132.08854 719.956321,132.121973 719.893635,132.164204 C719.847445,132.195438 719.804335,132.23107 719.765074,132.270662 C719.499922,132.539005 719.450433,132.949878 719.492334,133.308512 C719.499592,133.371199 719.50982,133.433446 719.522577,133.495253 C719.539624,133.577515 719.561179,133.658788 719.586803,133.738741 C719.703487,134.103864 719.901443,134.440942 720.149329,134.732271 C720.378628,135.001604 720.652577,135.234644 720.961279,135.408297 C721.260193,135.576562 721.599138,135.694237 721.944571,135.702375 C722.072253,135.705454 722.201035,135.692807 722.323987,135.657615 C722.407349,135.63364 722.487851,135.599217 722.561425,135.553137 C722.608494,135.523663 722.652485,135.48946 722.692736,135.451298 C722.974603,135.184385 723.028491,134.761634 722.985491,134.393982 C722.978233,134.331405 722.968005,134.269049 722.955248,134.207242 C722.938201,134.124979 722.916646,134.043706 722.891022,133.963753 C722.679099,133.300704 722.202134,132.714088 721.611345,132.350065 C721.296925,132.156286 720.943023,132.024094 720.572625,132.001549 C720.533913,132.000119 720.495532,131.999679 720.456711,132.000229 Z" transform="translate(-678 -132)"/>
</svg>
